<?xml version="1.0" encoding="utf-8"?>
<!-- Generator: Adobe Illustrator 18.0.0, SVG Export Plug-In . SVG Version: 6.00 Build 0)  -->
<!DOCTYPE svg PUBLIC "-//W3C//DTD SVG 1.1//EN" "http://www.w3.org/Graphics/SVG/1.1/DTD/svg11.dtd">
<svg version="1.1" id="Layer_1" xmlns="http://www.w3.org/2000/svg" xmlns:xlink="http://www.w3.org/1999/xlink" x="0px" y="0px"
	 viewBox="0 849 595.3 502.1" enable-background="new 0 849 595.3 502.1" xml:space="preserve">
<g>
	<g>
		<path fill="#F2D4C7" d="M365.1,1116.8l-64.1-21.1c0,0-77.3,37-153.3,73.8c21.7,8,48,16.5,50.9,9.7c4.9-11.6,38.9-47.9,38.9-47.9
			s67.9,8.8,87.3,10.7L365.1,1116.8z"/>
		<g>
			<path fill="#F2D4C7" d="M411.4,1273.7c9-1.3,13.3,6.4,14.6,16.2l165.9-98.5l-73.6-24.2c4.9,6.6,5.5,18.6,1.8,29.2
				c-5.1,14.9-17.1,13.7-17.1,13.7c-41.1,24-89.4,7.2-89.4,7.2c-36.8,32.6-79.4,41.3-79.4,41.3c24.2,26.3,47.7,36.7,64.6,40.8
				C396.5,1288.4,397.2,1275.8,411.4,1273.7z"/>
			<path fill="#F2D4C7" d="M504.8,1162.7l-46.6-15.3c-6.3,30.6-30,59.2-30,59.2c37.5,7,67.1-11.6,67.1-11.6
				C491.2,1179.2,496.1,1165.7,504.8,1162.7z"/>
			<path fill="#F2D4C7" d="M308.4,1262.6c0,0-67.6,17.7-135.9-19.5c-35.8-19.5-56.1-38.9-67.3-52.8c-55.9,27.2-101.9,49.9-101.9,51
				l319.7,109.9l62-36.8C338.1,1301.1,308.4,1262.6,308.4,1262.6z"/>
		</g>
		<g opacity="0.5">
			<g>
				<path fill="#EAC3B5" d="M496.7,1170.4c-19.1,11.4-40.4,24-62.5,37.1c8.1,1,15.9,0.8,23-0.1c13.1-7.8,25.5-15.2,36.7-21.8
					C493.6,1179.8,494.7,1174.5,496.7,1170.4z"/>
				<path fill="#EAC3B5" d="M416.2,1218.2c-4.2,2.4-8.4,5-12.6,7.5c-12.6,9.6-25.3,16.6-36.4,21.6c-9.5,5.6-18.8,11.1-28,16.6
					c3,3,5.9,5.8,8.9,8.3c10.8-6.4,22.2-13.1,34.2-20.3c17.2-10.2,34.4-20.4,50.9-30.1C425.4,1220.7,419.4,1219.1,416.2,1218.2z"/>
				<path fill="#EAC3B5" d="M320,1275.1c-31.7,18.7-59.9,35.3-80.3,47.2l14.6,5c3.8-2.1,7.6-4.5,11.9-6.9c17-10,38.1-22.4,62.9-37
					C325.6,1280.5,322.7,1277.7,320,1275.1z"/>
				<path fill="#EAC3B5" d="M518.3,1167.1c0.6,0.9,1.2,1.8,1.7,3c0.9-0.5,1.7-1,2.5-1.5L518.3,1167.1z"/>
			</g>
			<path fill="#EAC3B5" d="M198.1,1254.6l-53.1,35.2l13.9,4.8l53.4-35.4C207.7,1257.8,202.9,1256.3,198.1,1254.6z"/>
			<g>
				<path fill="#EAC3B5" d="M137.7,1220.8l-66.9,43.6l14,4.8L148,1228C144.4,1225.6,140.9,1223.1,137.7,1220.8z"/>
				<path fill="#EAC3B5" d="M287.1,1137.4l47.3-30.8l-14.2-4.7l-51.1,33.3C274.8,1135.9,280.9,1136.7,287.1,1137.4z"/>
			</g>
		</g>
		<g opacity="0.5">
			<path fill="#EAC3B5" d="M351.2,1334.2l12.5-7.4L73.6,1205.5c-4.8,2.3-9.5,4.7-13.9,6.8L351.2,1334.2z"/>
			<g>
				<path fill="#EAC3B5" d="M230,1139.4l-11.3-4.2c-4.8,2.2-9.6,4.6-14.6,7l17.5,6.5C224.6,1145.5,227.4,1142.2,230,1139.4z"/>
				<path fill="#EAC3B5" d="M413.8,1217.4c-0.9,0.8-1.8,1.5-2.6,2.3l81.6,30.5l12.8-7.6l-52.1-19.5
					C430.9,1223.4,413.8,1217.4,413.8,1217.4z"/>
			</g>
			<g>
				<path fill="#EAC3B5" d="M494.2,1179l-41.1-14.7c-1.4,3.7-3.1,7.3-4.8,10.7l46.3,16.5C493.7,1187.1,493.7,1182.8,494.2,1179z"/>
				<path fill="#EAC3B5" d="M522.1,1188.9c-0.4,2.5-1,5-1.8,7.4c-0.5,1.3-1,2.6-1.5,3.7l36.5,13l13-7.7L522.1,1188.9z"/>
				<g>
					<path fill="#EAC3B5" d="M283.4,1104.1c-4.3,2-9.3,4.5-14.9,7.1l67.1,23.9l12.7-7.9L283.4,1104.1z"/>
				</g>
			</g>
			<g>
				<path fill="#EAC3B5" d="M424.2,1282.4c0.8,2.2,1.4,4.8,1.7,7.4l6.5-3.9L424.2,1282.4z"/>
				<path fill="#EAC3B5" d="M406.7,1274.9l-52.2-22.4c-7.5,2.8-13.4,4.6-16.9,5.4l61,26.2C399.7,1280.1,402.3,1276.7,406.7,1274.9z"
					/>
			</g>
		</g>
	</g>
	<g>
		<path fill="#FFEDE5" d="M430.6,1144.4c-11.8,2.6-23.5,1.6-29.7,0.8c-3.1,3.4-7.4,5.5-12.3,5.5c-9.3,0-16.7-7.4-16.7-16.7
			s7.4-16.7,16.7-16.7c8.8,0,16,6.8,16.6,15.5c5.8,0.8,20.8,1.9,31.7-4.7c8.8-5.3,13.7-13.2,16.2-18.3c0.9-28.5-5.1-59.7-19.5-92.7
			c-24.4-55.8-62-79.5-95.1-88.9l-13.9,1c7,2.8,18.6,17.9,18.6,17.9l-54.5,1.7c9.9,17.6,2.4,31.7,2.4,31.7
			c-22.5-19.6-44.6-15.2-44.6-15.2c2.5,19.3-7.4,37.3-7.4,37.3c-15.8-6.3-41.8-36.7-41.8-36.7c-6.7,1.2-37.9,25.4-37.9,25.4
			c-5.2-13.4-6-24.3-5.1-32.6c-58.1,42.3-78.6,117.6-57.3,182.4c29.6,89.9,113.8,121.3,206.6,112.8c-7.9-10.3-14.8-24.8-14.8-24.8
			l10.6-3.8c4.9,10.5,14.7,21.5,19.7,26.8c2.5-0.3,5-0.7,7.5-1.1c62-10,107.4-50.4,121.6-107.5c1-3.6,1.8-6.9,2.3-9.8
			C445.9,1137.9,439,1142.5,430.6,1144.4z M354.8,1167.8c-1.1,0-2.2-0.1-3.4-0.3c-8.5,7.5-27.7,20.5-57,19.6
			c-41-1.1-65.7-15.6-65.7-15.6l6.8-11.7c0,0,27,15.1,59.4,13.2c23.9-1.3,38.3-9.6,44.2-13.7c-1.9-3-3.2-6.5-3.2-10.3
			c0-10.4,8.4-18.7,18.7-18.7c10.4,0,18.7,8.4,18.7,18.7C373.6,1159.4,365.2,1167.8,354.8,1167.8z"/>
		<circle fill="#C95B5E" cx="356.7" cy="1104.5" r="7"/>
		<path fill="#FFEDE5" d="M509,1169.2c-15.2,0.3-8.3,24.3-6.3,30.8c-5.6,3.6-16.1,8.5-35,12.6c-34.3,7.4-63.3-9-63.6-9.2l-1.4,2.4
			c0.2,0.1,20.2,11.5,46.7,11.5c6,0,12.3-0.6,18.8-2c18.8-4.1,29.5-9,35.5-12.7C511.1,1214.9,526,1168.9,509,1169.2z"/>
		<path fill="#FFEDE5" d="M220,915.2c0,0-5.5-20.4-31.8-41.4c0,0,8.8-26.3,27.1-24.7c0,0,19.1,15.3,26,51.5c0,0,23.7-21,49.6-20.3
			c0,0-17,9.3-25.6,31.3c0,0,42-13.2,68.7,0.6c0,0-20.4,15.4-39.7,15.2c0,0,21.2,3.1,29.5,11.6c0,0-45.2,0.1-56.5,1.8
			c0,0,14,5.8,16.7,25.1c0,0-23.3-20.5-49.8-12.7c0,0,7.3,23.6,1.5,34.8c0,0-23.9-12.4-28.8-40.7c0,0-33.1,14.2-45,32.1
			c0,0-2.7-29.3,30.1-47.7c0,0-17.8-5.8-32.5-0.3C159.4,931.4,191.4,899.2,220,915.2z"/>
		<circle fill="#C95B5E" cx="423.9" cy="1060.7" r="13"/>
		<circle fill="#C95B5E" cx="254.1" cy="1096" r="13"/>
		<g>
			<path fill="#EAC3B5" d="M339.4,1118.9l23.3,51.1c0,0,5.6,9.5,24.2,0c17.4-8.8,18.8-11.5,16.6-18.8c-1.9-6-21-47.3-21-47.3
				L339.4,1118.9z"/>
			
				<ellipse transform="matrix(0.3277 0.9448 -0.9448 0.3277 1292.5325 406.1801)" fill="#FFEDE5" cx="360.9" cy="1111.3" rx="8.1" ry="22.9"/>
			<path fill="#F2D4C7" d="M362.9,1109.8c7.5-2.6,14.7-3.6,19.2-2.8c0.6-1.1,0.7-2.2,0.4-3.2c-1.4-4.3-12.3-4.3-24.2-0.2
				c-11.9,4.2-20.5,10.9-18.9,15.2c0.5,1.5,2.3,2.5,5,3C346.4,1117.9,353.6,1113.1,362.9,1109.8z"/>
		</g>
		<path fill="#FFEDE5" d="M351.9,1138.5c-5.9,1.7-9.4,7.8-7.6,13.8c0.8,3,2.8,5.3,5.3,6.7c-22.1,19.1-49.1,21.1-68.7,19
			c-23.7-2.4-42.1-11.1-42.3-11.2l-1.2,2.5c0.2,0.1,19,9,43.2,11.5c14.4,1.5,27.7,0.5,39.8-3c12.1-3.5,23-9.5,32.3-17.7
			c1.7,0.4,3.7,0.4,5.5-0.2c5.9-1.7,9.4-7.8,7.6-13.8C364,1140.3,357.8,1136.9,351.9,1138.5z"/>
		<path fill="#FFEDE5" d="M459.7,1101.9c-0.8-7.7-4.6-14.4-8.4-18.9l-0.5,4l0,0c2.8,4,5.5,9.3,6.1,15.3c0.9,9.1-2.8,17.7-11.2,25.6
			c-15,14.2-34.3,12.3-45.9,9.3c1.2-5.8-2.2-11.7-8.1-13.1c-6-1.5-12.1,2-13.6,8c-1.5,6,2,12.1,8,13.6c5.2,1.3,10.5-1.2,12.7-5.8
			c0.2,0,0.4,0.1,0.5,0.1c12.3,3.2,32.6,5.1,48.2-10C456.6,1121.3,460.6,1111.9,459.7,1101.9z"/>
		<path fill="#FFEDE5" d="M407.5,1310.7c0,0-13.1-26.1,4.2-28.6S420.6,1328.5,407.5,1310.7z"/>
		<g>
			<path fill="#FFEDE5" d="M413.4,1311.9c-41.4-5-71.2-26-88.9-42.6c-19.1-18.1-28.6-35.2-28.7-35.4l2.4-1.3
				c0.1,0.2,9.4,17,28.2,34.8c17.3,16.4,46.5,36.9,87.1,41.8L413.4,1311.9z"/>
		</g>
	</g>
</g>
</svg>
