<?xml version="1.0" encoding="utf-8"?>
<!-- Generator: Adobe Illustrator 18.0.0, SVG Export Plug-In . SVG Version: 6.00 Build 0)  -->
<!DOCTYPE svg PUBLIC "-//W3C//DTD SVG 1.1//EN" "http://www.w3.org/Graphics/SVG/1.1/DTD/svg11.dtd">
<svg version="1.1" id="Layer_1" xmlns="http://www.w3.org/2000/svg" xmlns:xlink="http://www.w3.org/1999/xlink" x="0px" y="0px"
	 viewBox="0 339.1 595.3 502.8" enable-background="new 0 339.1 595.3 502.8" xml:space="preserve">
<g>
	<path fill="#FFEDE5" d="M494.7,540.6c-16.2-52.8-48-83-79.9-100.3c-8.3,3-14.6,4.2-14.6,4.2c19.5,8.5,22.4,30.5,22.4,30.5
		c-40.1,7.1-73.1-9.6-73.1-9.6c4.6,20.6-5.7,34.8-5.7,34.8c-34.1-6-54.7-39.7-54.7-39.7c-22.4,2.1-42.2,33.7-42.2,33.7
		c-23.4-12.1-17-44.7-17-44.7c-19,0.4-33.2-5-41.8-9.6c-61.8,37.9-92.6,109.9-79.9,171c2.1,10.1,5.1,20,8.8,29.6
		c14-20.9,34.9-35.5,34.9-35.5l8,13.3c-18.1,12.8-28.6,35-32.4,44.6c28.5,51.5,81.7,90,150.1,100c0.2-5.6-2-15.5-16.7-26.8l5.6-8.2
		c0,0,21.7,11.1,25.8,36.7c19,1.6,39,1,60-2.1C480.6,743.6,534,668.5,494.7,540.6z"/>
	<path fill="#FFEDE5" d="M566.7,562.9c-2.1-6.1-8.7-9.2-14.7-7.2c-6.1,2.1-9.2,8.7-7.2,14.7c0.3,1,0.8,1.9,1.4,2.8
		c-13.1,13.1-42.7,39.6-74.9,48.4l0.7,2.5c2.1-0.6,4.1-1.2,6.1-1.9c30.2-10.4,57.4-34.5,70-47.1c3,2.7,7.3,3.8,11.5,2.4
		C565.5,575.3,568.7,568.7,566.7,562.9z"/>
	<path fill="#FFEDE5" d="M496.5,812.2c-8.8-4.5-18.4-1.5-23.9,1.1c-0.4-9.2-1.8-32.7-5.9-48.4c-5.3-20-27.1-40.4-28-41.2l-1.8,1.9
		c0.2,0.2,22.1,20.7,27.2,40c4.3,16.2,5.6,40.9,5.9,49c-1.2,0.7-1.9,1.1-1.9,1.1c-7,6.6,24.8,16.3,31.8,14.9
		C507,829.2,509.8,819,496.5,812.2z"/>
	<path fill="#FFEDE5" d="M390.9,450.6c-11.4-4.8-24.4-18.5-24.4-18.5s10.5,2.2,25,0c14.5-2.2,23.1-16.2,23.1-16.2
		s-11.9,3.3-27.3,2.9c-15.4-0.4-35.4-6.1-35.4-6.1c8.3-15.6,33.2-24.4,33.2-24.4s-11-4.2-30.5-1.5c-13.7,1.9-27.1,10.9-34.1,16
		c0.9-7,1.9-17,1.8-28.5c-0.2-22-5.3-34.9-5.3-34.9c-15.6-2.6-26.6,11.9-26.6,11.9s6.6,5,11.4,17.3c3,7.6,4.9,22.4,5.9,32.5
		c-32.7-19.6-69.6-19.4-69.6-19.4c13.9,6.8,20.6,32.6,20.6,32.6c-19.1,6.5-65.9,0-65.9,0s0.7,4.1,17.6,17
		c16.9,12.8,44.2,3.1,44.2,3.1s-6.1,5-11.2,20.2c-5.1,15.2,3.1,23.1,2.9,22.2c-0.2-0.9,6.6-13,18.7-22.6c12.1-9.5,31-12.5,31-12.5
		c7.9,38.4,43.9,44.4,43.9,44.4s1.1-8.1,0.7-15.8c-0.4-7.7-10.5-31.6-10.5-31.6s16.9,16.7,35,21.8c18.1,5.1,46.2,6.4,46.2,6.4
		S402.3,455.4,390.9,450.6z"/>
	<circle fill="#C95B5E" cx="458.7" cy="576.5" r="16.5"/>
	<circle fill="#C95B5E" cx="249.2" cy="593" r="16.5"/>
	<path fill="#FFEDE5" d="M281.4,782.5c14.4-32.3-14.1-49.3-14.3-49.5l-1.3,2.3c0.1,0,6.8,4,11.7,11.7c6.7,10.2,7.2,21.8,1.5,34.5
		c-11.3,25.5-27.1,35.2-32.1,37.7c-1.3,0.1-2.5,0.2-3.2,0.5c-2.7,1.2,0.2,10.6,11.3,18.5c11.1,7.9,21.9,5.2,23.9-5.4
		c2-10.6-22.7-13.1-22.7-13.1s-1.9-0.2-4.3-0.4C259.3,814.7,271.8,804.2,281.4,782.5z"/>
	<path fill="#C95B5E" d="M388.1,605.8l-0.5-0.1l-0.1,0.5c0,0-0.5,3.3-2.4,6.7c-2.4,4-5.9,6.1-10.3,6.1c-0.2,0-0.4,0-0.6,0
		c-11.2-0.3-13.9-9.6-14.1-10.6l-0.1-0.5l-3.5,0.8v0.4c0,0.2,0.8,3.5,3.3,6.7c1.8,2.5,6.1,6.7,14.2,6.9h0.5
		c12.3,0,15.8-12,16.5-15.7l0.3-0.7L388.1,605.8z"/>
	<g>
		<path fill="#F2D4C7" d="M352.6,647.2l56-1.5c0,0-14.8,23.4-15.2,23.4c-0.4,0-20.2,2.8-20.2,2.8L352.6,647.2z"/>
		<path fill="#C95B5E" d="M404.2,645.8l-17.9,24.3c3.8-0.5,7-1,7.1-1c0.4,0,15.2-23.4,15.2-23.4L404.2,645.8z"/>
		<polygon fill="#C95B5E" points="364.6,661.6 371.2,669.5 390.5,646.2 378.2,646.5 		"/>
		<path fill="#F2D4C7" d="M368.3,666c0,0,23.7-1.8,26.2-1.5c2.5,0.3,8.2,16,10.7,29.5c2.5,13.4,3.9,48.5,3.2,51.1
			c-0.7,2.7-38.5,33.2-40,33.2c-1.6,0-34.4-29.6-34.5-31s21.7-35.6,28.8-51.4C369.7,680,368.3,666,368.3,666z"/>
		<path fill="#C95B5E" d="M398.4,670.7c-1.5-3.8-3.1-6.2-4-6.4c-2.5-0.3-26.2,1.5-26.2,1.5s1.3,13-4.9,28
			C372.6,688.4,388.6,678.2,398.4,670.7z"/>
		<path fill="#C95B5E" d="M354.6,711c-5.9,10.6-13,22.4-17.2,29.5c17.4-9.8,55.5-31.8,68.4-42.9c-0.2-1.4-0.4-2.7-0.6-3.9
			c-1-5.3-2.5-11-4.1-15.9C391.5,685.7,371.3,701.5,354.6,711z"/>
		<path fill="#C95B5E" d="M357.3,769c10.8-5.7,38.3-21.1,51.2-36.2c-0.2-7.1-0.8-16.4-1.4-24.5c-14.2,12-47.3,38.6-66.8,45.2
			C344.9,758,351.6,764,357.3,769z"/>
	</g>
	<path fill="#FFEDE5" d="M149.7,618.9l-1.5-2.2c-17.1,11.8-25.7,32.3-29.8,47.3c-2.5,8.9-3.7,17-4.3,22.5c-1,0.3-2,0.6-3,1.2
		c-5.5,3.2-7.4,10.2-4.3,15.7c3.2,5.5,10.2,7.4,15.7,4.3c5.5-3.1,7.4-10.2,4.3-15.7c-2.1-3.7-6-5.8-10.1-5.8
		C118.6,670.6,125.5,635.7,149.7,618.9z"/>
</g>
<path fill="#FFEDE5" d="M511.9,441.4L511.9,441.4l13.6-33c0,0,0.8-3.2-3.7-4.4l-25.4-2.3c0,0-4.1,0-6.1,3.8
	c-1.6,3.1-7.5,17.8-9.8,23.6c-1.8-1.7-4.4-2.9-7.5-3.1c-5.5-0.3-10.2,2.9-10.4,7.1c-0.2,4.2,4.1,7.9,9.6,8.1
	c4.5,0.2,8.5-1.8,9.8-4.9l0,0l0,0c0.1-0.2,0.1-0.3,0.2-0.5l7.9-18.9c0,0,0.7-2.6,4-2.3s21,1.7,21,1.7s2.9-0.1,2.3,2.6
	c-0.5,1.9-4.5,11.2-6.6,16.2c-1.8-2.1-4.6-3.5-8.1-3.7c-5.5-0.3-10.2,2.9-10.4,7.1s4.1,7.9,9.6,8.1
	C506.6,447.1,510.8,444.7,511.9,441.4z"/>
<path fill="#FFEDE5" d="M74.9,520.2L74.9,520.2l3.7-35.5c0,0-0.1-3.3-4.8-3.1l-25,5c0,0-4,1.2-4.8,5.4c-0.7,3.4-2.1,19.1-2.7,25.4
	c-2.2-1.1-5.1-1.5-8.1-0.8c-5.4,1.3-9,5.6-8,9.8c1,4.1,6.2,6.4,11.6,5.1c4.4-1,7.6-4.2,8.1-7.5l0,0l0,0c0.1-0.2,0-0.3,0-0.5
	l2.2-20.4c0,0-0.1-2.7,3.1-3.4c3.2-0.6,20.7-4.3,20.7-4.3s2.7-0.9,2.9,1.9c0.1,2-1.1,12-1.7,17.4c-2.3-1.5-5.4-2.1-8.8-1.3
	c-5.4,1.3-9,5.6-8,9.8c1,4.1,6.2,6.4,11.6,5.1C71.5,527.2,74.8,523.7,74.9,520.2z"/>
<path fill="#FFEDE5" d="M96.3,403l9.3,42.8c-1.5-0.2-3-0.1-4.5,0.2c-6,1.3-10,6-9,10.4c0.9,4.5,6.6,7,12.6,5.7c6-1.3,10-6,9-10.4
	l-9.2-42c0,0,11.4-0.9,14.8,3.4c3.5,4.2,0.5,11.5,0.5,11.5s6.1-4.4,6-10.5C125.6,408,108.4,399.8,96.3,403z"/>
<path fill="#FFEDE5" d="M523.1,478.6l17.7,40c-1.4,0.2-2.9,0.5-4.4,1.2c-5.6,2.5-8.6,7.8-6.8,12.1c1.9,4.2,7.8,5.5,13.4,3
	c5.6-2.5,8.6-7.8,6.8-12.1l-17.4-39.2c0,0,11-3.1,15.2,0.3c4.3,3.4,2.7,11.1,2.7,11.1s5-5.6,3.8-11.4
	C553,477.6,534.5,473,523.1,478.6z"/>
</svg>
